<svg width="69" height="62" viewBox="0 0 69 62" fill="none" xmlns="http://www.w3.org/2000/svg">
<ellipse cx="34.4999" cy="31" rx="33.555" ry="30.0021" fill="#016FB9"/>
<path d="M30.1157 38.5668V37.8042C30.1157 36.0566 30.2534 34.6637 30.5288 33.6257C30.8041 32.5877 31.2119 31.7563 31.7521 31.1313C32.2923 30.4958 32.9543 29.9239 33.7381 29.4155C34.416 28.9706 35.0197 28.5416 35.5493 28.1286C36.0895 27.7155 36.5132 27.2759 36.8203 26.8099C37.1381 26.3438 37.297 25.8142 37.297 25.2211C37.297 24.6915 37.1699 24.2255 36.9156 23.823C36.6614 23.4205 36.3172 23.108 35.8829 22.8856C35.4487 22.6632 34.9667 22.5519 34.4372 22.5519C33.8652 22.5519 33.3356 22.6843 32.8484 22.9491C32.3717 23.2139 31.9851 23.5794 31.6886 24.0454C31.4026 24.5114 31.2596 25.0516 31.2596 25.666H23.125C23.1462 23.3357 23.6758 21.4451 24.7138 19.994C25.7518 18.5323 27.1288 17.4626 28.8447 16.7847C30.5605 16.0962 32.4459 15.752 34.5007 15.752C36.7674 15.752 38.7904 16.0856 40.5698 16.7529C42.3493 17.4096 43.7527 18.4052 44.7801 19.7398C45.8075 21.0638 46.3212 22.7214 46.3212 24.7127C46.3212 25.9943 46.0988 27.1223 45.6539 28.0968C45.2197 29.0606 44.6106 29.9133 43.8268 30.6547C43.0536 31.3856 42.148 32.0528 41.11 32.6566C40.3474 33.1014 39.7066 33.5622 39.1876 34.0388C38.6686 34.5049 38.2767 35.0397 38.0119 35.6435C37.7471 36.2366 37.6147 36.9569 37.6147 37.8042V38.5668H30.1157ZM33.9923 49.2434C32.7636 49.2434 31.7097 48.8145 30.8306 47.9565C29.9621 47.088 29.5331 46.0341 29.5437 44.7948C29.5331 43.5874 29.9621 42.5547 30.8306 41.6967C31.7097 40.8388 32.7636 40.4098 33.9923 40.4098C35.1574 40.4098 36.1848 40.8388 37.0745 41.6967C37.9748 42.5547 38.4303 43.5874 38.4409 44.7948C38.4303 45.621 38.2131 46.373 37.7895 47.0509C37.3764 47.7182 36.8362 48.2531 36.1689 48.6556C35.5016 49.0475 34.7761 49.2434 33.9923 49.2434Z" fill="#F6F8FF"/>
</svg>
