<svg width="76" height="66" viewBox="0 0 76 66" fill="none" xmlns="http://www.w3.org/2000/svg">
<path d="M20.0357 11.9286H21.7701L22.3774 10.304L24.1891 5.45813C24.1892 5.45781 24.1894 5.45749 24.1895 5.45717C24.8547 3.68122 26.557 2.5 28.4625 2.5H46.9513C48.8572 2.5 50.5597 3.68165 51.2247 5.45813L51.2267 5.4634L53.0535 10.3103L53.6634 11.9286H55.3929H68.3571C70.8804 11.9286 72.9286 13.9767 72.9286 16.5V58.9286C72.9286 61.4519 70.8804 63.5 68.3571 63.5H7.07143C4.54812 63.5 2.5 61.4519 2.5 58.9286V16.5C2.5 13.9767 4.54812 11.9286 7.07143 11.9286H20.0357ZM57.8929 37.7143C57.8929 26.5809 48.8477 17.5357 37.7143 17.5357C26.5809 17.5357 17.5357 26.5809 17.5357 37.7143C17.5357 48.8477 26.5809 57.8929 37.7143 57.8929C48.8477 57.8929 57.8929 48.8477 57.8929 37.7143ZM48.1786 37.7143C48.1786 43.4787 43.4787 48.1786 37.7143 48.1786C31.9499 48.1786 27.25 43.4787 27.25 37.7143C27.25 31.9499 31.9499 27.25 37.7143 27.25C43.4787 27.25 48.1786 31.9499 48.1786 37.7143Z" fill="#016FB9" stroke="#016FB9" stroke-width="5"/>
</svg>
