<svg width="185" height="205" viewBox="0 0 185 205" fill="none" xmlns="http://www.w3.org/2000/svg">
<ellipse cx="93.5" cy="120.353" rx="91.5" ry="83.3527" fill="#F6F8FF"/>
<path d="M92.4312 5.69682C94.4253 2.90484 98.5747 2.90484 100.569 5.69682L149.31 73.9408C151.674 77.2501 149.308 81.8468 145.241 81.8468H47.7587C43.692 81.8468 41.3263 77.2501 43.6899 73.9408L92.4312 5.69682Z" fill="#001242"/>
<ellipse cx="87" cy="50.8198" rx="7" ry="5.88441" fill="#F6F8FF"/>
<ellipse cx="107" cy="50.8198" rx="7" ry="5.88441" fill="#F6F8FF"/>
<line x1="92" y1="66.4032" x2="111" y2="66.4032" stroke="#F6F8FF" stroke-width="2"/>
<line y1="-1" x2="12.7403" y2="-1" transform="matrix(0.941895 -0.335909 0.297455 0.954736 111 67.4032)" stroke="#F6F8FF" stroke-width="2"/>
<line y1="-1" x2="19" y2="-1" transform="matrix(-1 0 0 1 101 67.4032)" stroke="#F6F8FF" stroke-width="2"/>
<line y1="-1" x2="12.7403" y2="-1" transform="matrix(-0.941895 -0.335909 -0.297455 0.954736 82 67.4032)" stroke="#F6F8FF" stroke-width="2"/>
<rect x="80" y="84" width="34" height="32" fill="#001242"/>
<rect x="51" y="99.0107" width="92" height="80.2419" rx="10" fill="#001242"/>
<ellipse cx="97" cy="167.019" rx="46" ry="37.9812" fill="#001242"/>
<rect x="39" y="99.0807" width="20" height="17.1183" fill="#001242"/>
<path d="M32 107.581C32 102.886 35.8056 99.0807 40.5 99.0807C45.1944 99.0807 49 102.886 49 107.581V156.944C49 163.985 43.2916 169.694 36.25 169.694C33.9028 169.694 32 167.791 32 165.444V107.581Z" fill="#001242"/>
<path d="M14.6014 124.339C13.1647 119.546 15.837 114.344 20.5701 112.72C25.3033 111.096 30.3049 113.665 31.7416 118.458L43.6392 158.153C45.0759 162.946 42.4036 168.148 37.6704 169.772C32.9373 171.396 27.9356 168.827 26.4989 164.033L14.6014 124.339Z" fill="#001242"/>
<rect width="20" height="24.1212" transform="matrix(-1 0 0 1 157 99.1505)" fill="#001242"/>
<path d="M164 107.651C164 102.956 160.194 99.1505 155.5 99.1505C150.806 99.1505 147 102.956 147 107.651V185.901C147 192.942 152.708 198.651 159.75 198.651C162.097 198.651 164 196.748 164 194.401V107.651Z" fill="#001242"/>
<rect width="20.4788" height="19.2575" rx="5" transform="matrix(0.999722 -0.0235773 0.0205989 0.999788 9 92.0742)" fill="#001242"/>
<path d="M35.8536 84.9568C36.1818 84.6164 36.7495 84.9229 36.6885 85.4076L35.3774 95.8178C35.3341 96.1618 34.9795 96.3495 34.6793 96.1874L28.9413 93.089C28.6411 92.9269 28.5716 92.5101 28.8045 92.2686L35.8536 84.9568Z" fill="#001242"/>
<path d="M3.28285 85.8636C3.07952 85.361 3.66602 84.9024 4.0519 85.2622L10.8599 91.6115C11.0906 91.8266 11.0705 92.2175 10.8185 92.4145L7.59775 94.933C7.34583 95.13 6.99165 95.0319 6.8701 94.7314L3.28285 85.8636Z" fill="#001242"/>
<path d="M11.6351 74.7999C11.6595 74.2036 12.5178 74.1342 12.6256 74.7199L15.1631 88.4968C15.2171 88.7898 15.0042 89.0671 14.707 89.0911L11.5939 89.3426C11.2966 89.3666 11.0472 89.1265 11.0595 88.8283L11.6351 74.7999Z" fill="#001242"/>
<path d="M18.6006 71.3117C18.6748 70.711 19.5537 70.7381 19.5955 71.3424L20.7255 87.6844C20.7458 87.9789 20.5082 88.2259 20.2132 88.2168L17.0756 88.12C16.7806 88.1109 16.5567 87.8497 16.5929 87.557L18.6006 71.3117Z" fill="#001242"/>
<path d="M27.187 72.3918C27.3257 71.8037 28.1942 71.9389 28.1705 72.5449L27.5295 88.924C27.5179 89.2194 27.2555 89.4358 26.9639 89.3904L23.8563 88.9067C23.5647 88.8613 23.3708 88.5738 23.4384 88.287L27.187 72.3918Z" fill="#001242"/>
</svg>
