<svg width="187" height="181" viewBox="0 0 187 181" fill="none" xmlns="http://www.w3.org/2000/svg">
<ellipse cx="91.5" cy="95.3527" rx="91.5" ry="83.3527" fill="#001242"/>
<rect x="36" width="105" height="56" rx="5" fill="#F6F8FF"/>
<ellipse cx="7" cy="5.88441" rx="7" ry="5.88441" transform="matrix(-1 0 0 1 107 25.9354)" fill="#001242"/>
<ellipse cx="7" cy="5.88441" rx="7" ry="5.88441" transform="matrix(-1 0 0 1 87 25.9354)" fill="#001242"/>
<line y1="-1" x2="19" y2="-1" transform="matrix(-1 0 0 1 95 48.4032)" stroke="#001242" stroke-width="2"/>
<line y1="-1" x2="12.7403" y2="-1" transform="matrix(-0.941895 -0.335909 -0.297455 0.954736 76 48.4032)" stroke="#001242" stroke-width="2"/>
<line x1="86" y1="47.4032" x2="105" y2="47.4032" stroke="#001242" stroke-width="2"/>
<line y1="-1" x2="12.7403" y2="-1" transform="matrix(0.941895 -0.335909 0.297455 0.954736 105 48.4032)" stroke="#001242" stroke-width="2"/>
<rect width="34" height="27" transform="matrix(-1 0 0 1 107 59)" fill="#F6F8FF"/>
<rect width="92" height="80.2419" rx="10" transform="matrix(-1 0 0 1 136 74.0107)" fill="#F6F8FF"/>
<ellipse cx="46" cy="37.9812" rx="46" ry="37.9812" transform="matrix(-1 0 0 1 136 105.038)" fill="#F6F8FF"/>
<rect width="20" height="17.1183" transform="matrix(-1 0 0 1 148 74.0806)" fill="#F6F8FF"/>
<path d="M155 82.5806C155 77.8862 151.194 74.0806 146.5 74.0806C141.806 74.0806 138 77.8861 138 82.5806V131.943C138 138.985 143.708 144.693 150.75 144.693C153.097 144.693 155 142.791 155 140.443V82.5806Z" fill="#F6F8FF"/>
<path d="M172.399 99.3392C173.835 94.5459 171.163 89.3437 166.43 87.7198C161.697 86.0959 156.695 88.6652 155.258 93.4585L143.361 133.153C141.924 137.946 144.596 143.148 149.33 144.772C154.063 146.396 159.064 143.827 160.501 139.033L172.399 99.3392Z" fill="#F6F8FF"/>
<rect x="30" y="74.1504" width="20" height="24.1212" fill="#F6F8FF"/>
<path d="M23 82.6504C23 77.956 26.8056 74.1504 31.5 74.1504C36.1944 74.1504 40 77.956 40 82.6504V160.9C40 167.942 34.2916 173.65 27.25 173.65C24.9028 173.65 23 171.748 23 169.4V82.6504Z" fill="#F6F8FF"/>
<rect width="20.4788" height="19.2575" rx="5" transform="matrix(-0.999722 -0.0235773 -0.0205989 0.999788 178 67.0742)" fill="#F6F8FF"/>
<path d="M151.146 59.9566C150.818 59.6161 150.25 59.9227 150.311 60.4074L151.623 70.8176C151.666 71.1616 152.02 71.3493 152.321 71.1872L158.059 68.0887C158.359 67.9266 158.428 67.5099 158.195 67.2683L151.146 59.9566Z" fill="#F6F8FF"/>
<path d="M183.717 60.8635C183.92 60.3609 183.334 59.9022 182.948 60.2621L176.14 66.6114C175.909 66.8265 175.93 67.2174 176.181 67.4144L179.402 69.9329C179.654 70.1299 180.008 70.0318 180.13 69.7313L183.717 60.8635Z" fill="#F6F8FF"/>
<path d="M175.365 49.7997C175.34 49.2034 174.482 49.1341 174.374 49.7197L171.837 63.4967C171.783 63.7896 171.996 64.067 172.293 64.091L175.406 64.3424C175.703 64.3665 175.953 64.1264 175.941 63.8282L175.365 49.7997Z" fill="#F6F8FF"/>
<path d="M168.399 46.3116C168.325 45.7109 167.446 45.738 167.405 46.3423L166.275 62.6842C166.254 62.9787 166.492 63.2257 166.787 63.2166L169.924 63.1199C170.219 63.1108 170.443 62.8496 170.407 62.5568L168.399 46.3116Z" fill="#F6F8FF"/>
<path d="M159.813 47.3917C159.674 46.8035 158.806 46.9388 158.829 47.5448L159.471 63.9238C159.482 64.2193 159.745 64.4357 160.036 64.3903L163.144 63.9065C163.435 63.8611 163.629 63.5736 163.562 63.2869L159.813 47.3917Z" fill="#F6F8FF"/>
</svg>
