<svg width="68" height="61" viewBox="0 0 68 61" fill="none" xmlns="http://www.w3.org/2000/svg">
<ellipse cx="33.555" cy="30.0021" rx="33.555" ry="30.0021" fill="#016FB9"/>
<path d="M29.1707 37.569V36.8064C29.1707 35.0587 29.3084 33.6659 29.5838 32.6279C29.8592 31.5899 30.267 30.7584 30.8072 30.1335C31.3474 29.498 32.0093 28.926 32.7931 28.4176C33.471 27.9728 34.0748 27.5438 34.6043 27.1307C35.1445 26.7176 35.5682 26.2781 35.8754 25.812C36.1931 25.346 36.352 24.8164 36.352 24.2232C36.352 23.6937 36.2249 23.2276 35.9707 22.8251C35.7165 22.4226 35.3723 22.1102 34.938 21.8877C34.5037 21.6653 34.0218 21.5541 33.4922 21.5541C32.9202 21.5541 32.3907 21.6865 31.9034 21.9513C31.4268 22.2161 31.0402 22.5815 30.7436 23.0475C30.4576 23.5136 30.3146 24.0538 30.3146 24.6681H22.1801C22.2013 22.3379 22.7309 20.4472 23.7689 18.9962C24.8069 17.5345 26.1838 16.4647 27.8997 15.7868C29.6156 15.0984 31.5009 14.7541 33.5558 14.7541C35.8224 14.7541 37.8455 15.0878 39.6249 15.7551C41.4043 16.4117 42.8077 17.4074 43.8352 18.742C44.8626 20.0659 45.3763 21.7236 45.3763 23.7148C45.3763 24.9964 45.1538 26.1245 44.709 27.0989C44.2747 28.0628 43.6657 28.9154 42.8819 29.6569C42.1087 30.3877 41.2031 31.055 40.1651 31.6587C39.4025 32.1036 38.7617 32.5643 38.2427 33.041C37.7237 33.507 37.3318 34.0419 37.067 34.6456C36.8022 35.2388 36.6698 35.959 36.6698 36.8064V37.569H29.1707ZM33.0473 48.2456C31.8187 48.2456 30.7648 47.8166 29.8857 46.9587C29.0171 46.0901 28.5882 45.0362 28.5988 43.797C28.5882 42.5895 29.0171 41.5568 29.8857 40.6989C30.7648 39.8409 31.8187 39.412 33.0473 39.412C34.2125 39.412 35.2399 39.8409 36.1296 40.6989C37.0299 41.5568 37.4853 42.5895 37.4959 43.797C37.4853 44.6232 37.2682 45.3752 36.8445 46.0531C36.4314 46.7203 35.8913 47.2552 35.224 47.6577C34.5567 48.0496 33.8311 48.2456 33.0473 48.2456Z" fill="#F6F8FF"/>
</svg>
