<svg width="24" height="35" viewBox="0 0 24 35" fill="none" xmlns="http://www.w3.org/2000/svg">
<path d="M7.17073 23.569V22.8064C7.17073 21.0587 7.30842 19.6659 7.58381 18.6279C7.8592 17.5899 8.26698 16.7584 8.80717 16.1335C9.34735 15.498 10.0093 14.926 10.7931 14.4176C11.471 13.9727 12.0748 13.5438 12.6043 13.1307C13.1445 12.7176 13.5682 12.278 13.8754 11.812C14.1931 11.346 14.352 10.8164 14.352 10.2232C14.352 9.69364 14.2249 9.22759 13.9707 8.8251C13.7165 8.42261 13.3723 8.11015 12.938 7.88772C12.5037 7.66529 12.0218 7.55408 11.4922 7.55408C10.9202 7.55408 10.3907 7.68648 9.90343 7.95128C9.42679 8.21607 9.04019 8.58149 8.74362 9.04753C8.45764 9.51357 8.31465 10.0538 8.31465 10.6681H0.180101C0.201285 8.33788 0.730877 6.44723 1.76888 4.99615C2.80688 3.53447 4.18382 2.46469 5.8997 1.78681C7.61558 1.09834 9.50094 0.754107 11.5558 0.754107C13.8224 0.754107 15.8455 1.08775 17.6249 1.75504C19.4043 2.41173 20.8077 3.40737 21.8352 4.74194C22.8626 6.06592 23.3763 7.72355 23.3763 9.71482C23.3763 10.9964 23.1538 12.1245 22.709 13.0989C22.2747 14.0628 21.6657 14.9154 20.8819 15.6569C20.1087 16.3877 19.2031 17.055 18.1651 17.6587C17.4025 18.1036 16.7617 18.5643 16.2427 19.0409C15.7237 19.507 15.3318 20.0419 15.067 20.6456C14.8022 21.2388 14.6698 21.959 14.6698 22.8064V23.569H7.17073ZM11.0473 34.2456C9.81869 34.2456 8.7648 33.8166 7.88568 32.9587C7.01715 32.0901 6.58817 31.0362 6.59877 29.797C6.58817 28.5895 7.01715 27.5568 7.88568 26.6989C8.7648 25.8409 9.81869 25.412 11.0473 25.412C12.2125 25.412 13.2399 25.8409 14.1296 26.6989C15.0299 27.5568 15.4853 28.5895 15.4959 29.797C15.4853 30.6231 15.2682 31.3752 14.8445 32.053C14.4314 32.7203 13.8913 33.2552 13.224 33.6577C12.5567 34.0496 11.8311 34.2456 11.0473 34.2456Z" fill="#F6F8FF"/>
</svg>
